<?xml version="1.0" standalone="no"?>
<!DOCTYPE svg PUBLIC "-//W3C//DTD SVG 20010904//EN"
 "http://www.w3.org/TR/2001/REC-SVG-20010904/DTD/svg10.dtd">
<svg version="1.0" xmlns="http://www.w3.org/2000/svg"
 width="418.000000pt" height="340.000000pt" viewBox="0 0 418.000000 340.000000"
 preserveAspectRatio="xMidYMid meet">

<g transform="translate(0.000000,340.000000) scale(0.100000,-0.100000)"
fill="#000000" stroke="none">
<path d="M1366 2954 c-142 -23 -265 -99 -350 -218 -69 -97 -193 -364 -231
-496 -3 -14 -20 -68 -37 -120 -16 -52 -36 -122 -43 -155 -8 -33 -29 -127 -48
-210 -100 -430 -96 -668 13 -831 144 -215 432 -263 630 -105 101 80 172 181
285 404 44 87 92 174 108 192 57 69 58 69 404 73 419 4 392 17 527 -253 170
-340 301 -474 494 -504 81 -13 196 6 272 44 104 53 197 179 231 315 81 322
-187 1357 -432 1665 -61 77 -139 136 -229 171 -79 32 -214 46 -308 33 -88 -12
-115 -22 -211 -78 l-69 -41 -259 0 -258 0 -77 45 c-126 73 -253 95 -412 69z
m1469 -149 c140 -37 239 -120 312 -262 164 -316 335 -958 337 -1263 1 -157
-21 -232 -91 -310 -66 -74 -111 -95 -203 -95 -88 0 -135 21 -212 93 -64 60
-118 143 -218 337 -117 225 -137 250 -244 305 -59 30 -60 30 -228 30 l-168 0
0 525 0 525 156 0 156 0 37 29 c111 88 240 119 366 86z m-1728 -707 c-2 -13
-4 -5 -4 17 -1 22 1 32 4 23 2 -10 2 -28 0 -40z m-229 -267 c10 -5 59 -42 108
-81 49 -39 141 -107 204 -151 119 -83 225 -158 276 -196 l29 -22 -44 -88
c-147 -298 -261 -415 -410 -417 -36 0 -84 6 -105 13 -45 16 -116 77 -147 127
-78 127 -62 433 43 823 10 37 13 41 19 23 4 -11 16 -25 27 -31z"/>
<path d="M2682 2580 c-68 -42 -92 -132 -52 -197 53 -88 198 -83 246 8 23 45
15 121 -17 155 -52 56 -119 69 -177 34z"/>
<path d="M2424 2316 c-85 -37 -113 -152 -54 -220 55 -62 139 -71 198 -21 83
69 64 199 -35 241 -40 17 -69 17 -109 0z"/>
<path d="M2975 2316 c-67 -30 -102 -103 -84 -171 12 -42 68 -92 113 -100 47
-9 119 24 146 67 37 62 18 153 -42 192 -34 22 -98 28 -133 12z"/>
<path d="M2695 2031 c-51 -26 -77 -69 -78 -127 0 -51 21 -86 73 -121 115 -79
264 73 190 194 -40 67 -116 89 -185 54z"/>
</g>
</svg>
